<svg id="svg" version="1.1" xmlns="http://www.w3.org/2000/svg" xmlns:xlink="http://www.w3.org/1999/xlink" width="400" height="400" viewBox="0, 0, 400,400"><g id="svgg"><path id="path0" d="M17.435 190.833 C 17.431 295.792,17.552 381.866,17.705 382.109 C 17.919 382.452,61.350 382.578,208.991 382.665 L 400.000 382.778 400.000 191.389 L 400.000 0.000 208.721 0.000 L 17.443 0.000 17.435 190.833 M208.664 159.845 C 208.788 160.167,208.889 165.440,208.889 171.562 L 208.889 182.692 209.722 181.628 C 217.639 171.512,233.989 173.514,239.432 185.265 C 240.633 187.858,240.659 187.883,240.908 186.748 C 242.186 180.929,250.383 175.185,257.407 175.185 C 272.181 175.185,280.724 193.254,271.122 204.190 C 270.514 204.882,270.096 205.556,270.194 205.687 C 270.291 205.819,270.263 205.846,270.132 205.749 C 270.001 205.652,269.300 206.093,268.575 206.730 C 260.115 214.158,245.144 210.342,241.116 199.732 L 240.496 198.099 239.259 200.624 C 233.966 211.418,219.565 213.766,211.111 205.213 L 208.704 202.778 208.704 206.359 C 208.704 210.193,208.711 210.165,207.593 210.501 C 205.682 211.076,205.748 211.937,205.640 185.153 C 205.567 166.907,205.653 160.144,205.964 159.769 C 206.546 159.067,208.385 159.119,208.664 159.845 M136.225 176.551 C 136.310 177.419,135.991 178.239,135.024 179.646 C 134.300 180.698,133.803 181.712,133.918 181.900 C 134.034 182.087,133.946 182.195,133.722 182.139 C 133.498 182.083,133.027 182.535,132.676 183.143 C 132.324 183.752,131.848 184.419,131.617 184.625 C 130.756 185.394,128.909 188.251,129.087 188.539 C 129.188 188.703,129.076 188.958,128.838 189.106 C 128.549 189.284,128.504 189.212,128.704 188.889 C 128.902 188.568,128.859 188.493,128.576 188.668 C 128.341 188.814,128.148 189.173,128.148 189.466 C 128.148 189.760,127.964 190.000,127.738 190.000 C 127.513 190.000,127.419 190.238,127.531 190.528 C 127.642 190.819,127.452 191.277,127.108 191.547 C 126.569 191.969,126.533 191.958,126.852 191.467 C 127.056 191.154,126.768 191.404,126.212 192.023 C 125.657 192.642,125.290 193.393,125.398 193.692 C 125.506 193.992,125.476 194.118,125.330 193.972 C 125.185 193.827,123.773 195.498,122.193 197.687 C 120.613 199.876,118.973 202.110,118.549 202.651 C 118.125 203.193,117.778 203.818,117.778 204.040 C 117.778 204.262,117.653 204.446,117.500 204.447 C 117.207 204.450,115.556 206.730,115.556 207.132 C 115.556 207.260,120.012 207.379,125.459 207.395 C 136.185 207.428,136.630 207.510,136.164 209.366 C 135.837 210.668,135.106 210.741,122.388 210.741 C 109.239 210.741,108.524 210.507,111.172 207.077 C 111.733 206.350,111.772 206.085,111.391 205.596 C 110.987 205.078,111.004 205.061,111.525 205.467 C 112.121 205.933,115.857 201.283,116.074 199.806 C 116.117 199.517,116.294 199.151,116.468 198.992 C 116.643 198.834,116.666 198.912,116.519 199.167 C 116.372 199.421,116.341 199.630,116.450 199.630 C 116.833 199.630,117.745 197.498,117.485 197.210 C 117.341 197.049,117.412 197.027,117.644 197.159 C 118.188 197.470,120.127 194.949,119.778 194.385 C 119.626 194.138,119.678 194.060,119.902 194.199 C 120.289 194.438,121.720 192.656,121.564 192.130 C 121.519 191.977,121.624 191.852,121.799 191.852 C 122.275 191.852,126.871 185.166,126.728 184.680 C 126.660 184.449,126.724 184.379,126.870 184.525 C 127.460 185.115,129.846 181.011,129.359 180.244 C 129.208 180.008,129.075 179.648,129.063 179.444 C 129.051 179.241,128.840 179.116,128.594 179.167 C 128.349 179.218,128.148 179.093,128.148 178.889 C 128.148 178.654,125.260 178.519,120.225 178.519 C 111.785 178.519,111.852 178.533,111.852 176.710 C 111.852 175.222,112.293 175.171,124.431 175.273 L 136.111 175.370 136.225 176.551 M159.323 175.604 C 166.776 177.202,172.619 183.672,173.239 191.013 C 173.551 194.707,174.794 194.444,157.014 194.444 C 146.849 194.444,141.445 194.575,141.291 194.824 C 140.977 195.332,142.494 199.828,143.169 200.388 C 143.463 200.632,143.704 201.040,143.704 201.294 C 143.704 202.343,148.555 206.176,149.300 205.715 C 149.601 205.529,149.647 205.599,149.441 205.932 C 149.219 206.291,149.308 206.357,149.773 206.178 C 150.123 206.044,150.322 206.074,150.217 206.246 C 149.896 206.764,152.951 207.478,155.533 207.489 C 159.848 207.505,165.033 205.455,164.003 204.138 C 163.567 203.580,163.584 203.570,164.180 204.038 C 164.937 204.632,168.357 201.450,167.990 200.493 C 167.888 200.227,167.923 200.033,168.069 200.063 C 168.214 200.093,168.615 199.994,168.960 199.842 C 172.169 198.432,171.644 201.954,168.121 205.477 C 163.227 210.371,155.336 211.989,149.074 209.382 C 147.852 208.874,146.644 208.443,146.389 208.426 C 146.134 208.409,146.004 208.317,146.099 208.222 C 146.194 208.127,145.625 207.581,144.835 207.009 C 144.046 206.437,142.933 205.385,142.363 204.670 C 141.518 203.611,141.221 203.450,140.756 203.797 C 140.285 204.149,140.264 204.135,140.639 203.714 C 141.049 203.252,140.226 201.227,139.279 200.370 C 139.166 200.269,139.067 200.019,139.058 199.815 C 139.049 199.611,138.813 198.694,138.532 197.778 C 137.742 195.191,137.874 189.861,138.791 187.340 C 139.212 186.182,139.461 185.140,139.346 185.025 C 139.230 184.909,139.358 184.815,139.630 184.815 C 139.901 184.815,140.026 184.718,139.907 184.599 C 139.789 184.480,140.017 184.057,140.415 183.659 C 140.813 183.261,141.022 182.734,140.880 182.486 C 140.738 182.239,140.741 182.143,140.886 182.272 C 141.031 182.402,141.979 181.631,142.992 180.559 C 147.047 176.272,153.421 174.338,159.323 175.604 M179.556 175.630 C 179.800 175.874,180.000 176.895,180.000 177.898 L 180.000 179.723 181.033 178.658 C 181.601 178.072,181.991 177.426,181.899 177.222 C 181.808 177.019,181.856 176.962,182.006 177.096 C 182.156 177.231,183.224 176.897,184.380 176.356 C 188.949 174.215,195.262 175.462,198.505 179.147 C 201.700 182.776,201.667 182.585,201.667 197.222 L 201.667 210.185 200.370 210.185 L 199.074 210.185 198.889 197.593 C 198.712 185.575,198.667 184.932,197.903 183.519 C 194.127 176.534,184.511 176.587,181.051 183.612 C 180.204 185.332,180.183 185.641,180.070 197.684 C 179.944 211.161,179.883 211.497,177.778 210.370 C 177.054 209.983,177.037 209.595,177.037 193.024 C 177.037 175.512,177.064 175.185,178.519 175.185 C 178.844 175.185,179.311 175.385,179.556 175.630 M279.852 178.595 C 281.105 180.369,282.207 181.744,282.300 181.651 C 282.393 181.558,282.469 181.690,282.470 181.944 C 282.471 182.954,287.888 189.999,288.362 189.606 C 289.301 188.827,297.218 177.323,297.099 176.910 C 297.031 176.674,297.095 176.601,297.241 176.747 C 297.386 176.893,297.836 176.592,298.240 176.078 C 299.635 174.305,301.742 175.638,300.733 177.656 C 300.445 178.232,300.140 178.852,300.056 179.033 C 299.973 179.214,300.134 179.229,300.415 179.066 C 300.717 178.891,300.800 178.908,300.617 179.107 C 300.448 179.293,300.180 179.444,300.023 179.444 C 299.285 179.444,289.848 192.788,290.192 193.344 C 290.361 193.618,290.626 193.597,291.051 193.277 C 291.570 192.886,291.594 192.895,291.204 193.333 C 290.622 193.985,290.599 194.576,291.168 194.224 C 291.404 194.079,291.497 194.119,291.377 194.314 C 291.097 194.766,294.333 199.444,294.926 199.444 C 295.170 199.444,295.370 199.694,295.370 200.000 C 295.371 200.898,297.063 203.361,297.496 203.093 C 297.719 202.956,297.785 203.022,297.647 203.245 C 297.513 203.462,297.976 204.392,298.677 205.310 C 300.986 208.335,301.449 210.019,300.112 210.532 C 298.995 210.961,298.319 210.324,295.226 205.923 C 293.518 203.491,291.950 201.606,291.743 201.734 C 291.526 201.868,291.481 201.782,291.636 201.531 C 291.791 201.281,291.160 200.033,290.156 198.603 C 288.475 196.209,287.357 194.818,287.930 195.833 C 288.074 196.088,288.036 196.296,287.846 196.296 C 287.656 196.296,286.650 197.505,285.612 198.981 C 277.623 210.344,277.129 210.938,275.978 210.572 C 274.052 209.961,274.206 209.637,280.800 200.452 C 283.619 196.525,285.926 193.160,285.926 192.975 C 285.926 192.261,280.999 185.581,280.637 185.805 C 280.416 185.941,280.368 185.859,280.522 185.609 C 280.806 185.150,279.519 183.239,279.123 183.531 C 278.994 183.626,278.966 183.598,279.061 183.470 C 279.369 183.051,278.493 181.824,278.072 182.084 C 277.828 182.235,277.768 182.167,277.923 181.917 C 278.066 181.686,277.508 180.584,276.684 179.468 C 275.126 177.359,274.865 176.394,275.644 175.615 C 276.583 174.676,277.585 175.385,279.852 178.595 M152.261 178.719 C 146.699 180.257,142.181 184.951,141.312 190.093 L 141.078 191.481 155.715 191.481 L 170.352 191.481 170.145 190.278 C 168.789 182.371,159.879 176.612,152.261 178.719 M218.706 178.915 C 203.293 184.363,207.032 207.265,223.325 207.210 C 239.004 207.158,243.797 186.485,229.735 179.563 C 226.502 177.971,222.106 177.713,218.706 178.915 M253.962 178.709 C 250.327 179.625,244.610 183.956,245.384 185.207 C 245.553 185.481,245.519 185.577,245.299 185.441 C 244.139 184.724,242.485 191.435,242.972 194.882 C 245.331 211.570,269.369 211.613,271.931 194.933 C 272.331 192.328,271.788 187.915,271.118 188.329 C 270.949 188.434,270.888 188.221,270.984 187.855 C 271.242 186.866,268.308 182.716,266.334 181.279 C 262.757 178.674,258.012 177.689,253.962 178.709 " stroke="none" fill="#1c242c" fill-rule="evenodd"></path><path id="path1" d="M206.158 159.825 C 205.860 160.604,205.852 209.006,206.151 209.785 C 206.442 210.544,208.002 210.544,208.294 209.785 C 208.417 209.462,208.524 207.587,208.530 205.618 L 208.542 202.037 209.363 203.148 C 215.382 211.288,227.383 212.553,234.999 205.849 C 237.006 204.082,239.452 200.542,239.819 198.871 C 240.150 197.362,240.441 197.497,241.266 199.538 C 248.357 217.088,274.840 211.917,274.810 192.988 C 274.785 176.855,255.381 169.400,244.475 181.333 C 242.773 183.195,240.745 186.729,240.737 187.847 C 240.735 188.115,240.081 186.995,239.282 185.360 C 233.633 173.785,217.741 171.732,209.963 181.572 L 208.529 183.387 208.431 171.416 L 208.333 159.444 207.362 159.332 C 206.729 159.258,206.310 159.430,206.158 159.825 M112.607 176.093 C 111.217 177.769,111.917 177.952,120.498 178.148 C 132.629 178.426,132.646 177.547,120.168 195.035 C 112.845 205.298,110.731 208.509,110.816 209.241 L 110.926 210.185 122.593 210.289 C 135.867 210.407,136.021 210.391,135.857 208.969 L 135.741 207.963 125.421 207.864 C 115.837 207.773,115.114 207.720,115.276 207.124 C 115.372 206.770,118.085 202.815,121.306 198.333 C 137.690 175.531,136.780 176.929,135.852 176.000 C 135.137 175.285,113.205 175.373,112.607 176.093 M150.225 176.311 C 137.626 180.759,134.106 196.018,143.520 205.370 C 151.006 212.806,164.051 211.732,169.881 203.200 C 171.773 200.432,170.648 198.140,168.604 200.598 C 163.225 207.066,157.460 209.198,151.142 207.053 C 145.868 205.264,141.478 200.264,141.045 195.556 L 140.926 194.259 156.498 194.401 C 174.582 194.566,173.565 194.764,173.116 191.156 C 171.733 180.036,160.432 172.707,150.225 176.311 M177.577 176.019 C 177.479 176.273,177.443 184.065,177.496 193.333 L 177.593 210.185 178.477 210.310 C 179.920 210.514,179.988 209.950,179.996 197.778 C 180.005 185.128,180.118 184.207,181.966 181.784 C 186.270 176.142,194.800 177.150,198.208 183.704 C 199.053 185.330,199.079 185.672,199.259 197.778 C 199.444 210.183,199.445 210.185,200.253 210.300 C 201.829 210.525,201.936 209.592,201.787 196.899 L 201.647 185.000 200.588 182.686 C 197.227 175.341,187.623 173.162,181.545 178.365 L 180.000 179.687 180.000 178.207 C 180.000 175.846,178.249 174.265,177.577 176.019 M275.802 175.802 C 275.122 176.483,275.983 178.032,280.946 185.060 C 283.911 189.259,286.256 192.903,286.158 193.159 C 286.060 193.415,283.919 196.517,281.400 200.053 C 278.881 203.589,276.441 207.023,275.978 207.685 C 274.981 209.109,275.187 210.374,276.414 210.363 C 277.028 210.357,278.112 209.100,280.926 205.133 C 282.963 202.260,285.394 198.848,286.327 197.551 L 288.025 195.191 290.772 199.061 C 292.283 201.190,294.679 204.605,296.098 206.651 C 298.053 209.471,298.876 210.370,299.499 210.370 C 301.541 210.370,300.972 209.119,295.195 200.903 L 289.593 192.936 295.187 185.134 C 300.953 177.092,301.596 175.741,299.654 175.741 C 298.904 175.741,297.854 177.003,293.417 183.234 L 288.082 190.727 284.356 185.456 C 282.307 182.557,279.897 179.144,279.000 177.870 C 277.502 175.743,276.506 175.099,275.802 175.802 M226.907 178.294 C 238.081 181.270,241.980 194.297,234.265 202.878 C 225.796 212.297,209.834 206.713,208.638 193.913 C 207.720 184.073,217.430 175.771,226.907 178.294 M161.560 179.345 C 165.491 181.151,168.140 183.971,169.581 187.884 C 171.043 191.856,172.502 191.481,155.565 191.481 L 140.759 191.481 140.966 190.278 C 142.518 181.224,153.250 175.527,161.560 179.345 M263.412 179.329 C 275.089 184.779,275.339 200.687,263.838 206.349 C 252.571 211.896,239.615 200.925,243.189 188.864 C 245.740 180.252,255.515 175.643,263.412 179.329 " stroke="none" fill="#c8c6be" fill-rule="evenodd"></path><path id="path2" d="M0.000 200.000 L 0.000 400.000 200.000 400.000 L 400.000 400.000 400.000 391.529 L 400.000 383.059 397.500 382.842 C 396.125 382.723,310.171 382.610,206.492 382.591 C 60.289 382.564,17.921 382.456,17.705 382.111 C 17.551 381.867,17.426 299.833,17.427 199.815 C 17.427 99.796,17.423 13.921,17.418 8.981 L 17.407 0.000 8.704 0.000 L 0.000 0.000 0.000 200.000 M205.730 184.630 C 205.731 198.278,205.777 203.807,205.833 196.917 C 205.890 190.028,205.890 178.861,205.833 172.103 C 205.777 165.344,205.730 170.981,205.730 184.630 M208.619 161.481 C 208.619 162.398,208.692 162.773,208.780 162.315 C 208.868 161.856,208.868 161.106,208.780 160.648 C 208.692 160.190,208.619 160.565,208.619 161.481 M112.175 175.833 C 111.727 176.404,111.736 176.428,112.247 176.029 C 112.622 175.737,114.654 175.537,117.988 175.463 L 123.148 175.348 117.916 175.266 C 113.313 175.195,112.622 175.263,112.175 175.833 M127.009 190.463 C 126.691 191.500,126.776 191.852,127.248 191.460 C 127.535 191.222,127.678 190.879,127.567 190.699 C 127.375 190.389,127.071 190.260,127.009 190.463 M137.884 192.778 C 137.886 193.796,137.958 194.169,138.044 193.606 C 138.129 193.043,138.126 192.210,138.038 191.754 C 137.951 191.299,137.881 191.759,137.884 192.778 M117.580 197.333 C 117.674 197.427,117.585 197.816,117.381 198.197 C 116.857 199.177,117.212 199.057,117.888 198.025 C 118.363 197.300,118.370 197.160,117.931 197.160 C 117.643 197.160,117.485 197.238,117.580 197.333 M115.427 207.500 C 115.522 207.653,117.298 207.765,119.374 207.749 C 121.450 207.732,122.981 207.656,122.778 207.578 C 122.047 207.301,115.259 207.228,115.427 207.500 M116.968 210.648 C 120.291 210.709,125.624 210.709,128.820 210.647 C 132.015 210.586,129.296 210.535,122.778 210.536 C 116.259 210.536,113.645 210.586,116.968 210.648 M154.537 210.636 C 155.097 210.721,156.014 210.721,156.574 210.636 C 157.134 210.551,156.676 210.481,155.556 210.481 C 154.435 210.481,153.977 210.551,154.537 210.636 " stroke="none" fill="#412c32" fill-rule="evenodd"></path><path id="path3" d="M256.759 175.440 C 257.116 175.534,257.699 175.534,258.056 175.440 C 258.412 175.347,258.120 175.271,257.407 175.271 C 256.694 175.271,256.403 175.347,256.759 175.440 M199.054 197.963 C 199.053 204.278,199.104 206.913,199.166 203.819 C 199.228 200.726,199.228 195.559,199.166 192.338 C 199.104 189.117,199.054 191.648,199.054 197.963 M177.143 189.444 C 177.146 190.463,177.218 190.836,177.303 190.273 C 177.388 189.710,177.386 188.876,177.298 188.421 C 177.210 187.965,177.140 188.426,177.143 189.444 M274.916 192.963 C 274.916 193.880,274.988 194.255,275.076 193.796 C 275.164 193.338,275.164 192.588,275.076 192.130 C 274.988 191.671,274.916 192.046,274.916 192.963 M177.123 194.815 C 177.123 195.528,177.199 195.819,177.292 195.463 C 177.386 195.106,177.386 194.523,177.292 194.167 C 177.199 193.810,177.123 194.102,177.123 194.815 M144.352 194.350 C 146.236 194.417,149.319 194.417,151.204 194.350 C 153.088 194.283,151.546 194.228,147.778 194.228 C 144.009 194.228,142.468 194.283,144.352 194.350 M222.875 207.669 C 223.335 207.758,224.002 207.755,224.356 207.662 C 224.710 207.569,224.333 207.497,223.519 207.501 C 222.704 207.505,222.414 207.581,222.875 207.669 " stroke="none" fill="#828ea5" fill-rule="evenodd"></path><path id="path4" d="M208.679 172.037 C 208.679 177.130,208.731 179.264,208.795 176.781 C 208.859 174.297,208.859 170.131,208.795 167.522 C 208.732 164.912,208.679 166.944,208.679 172.037 M127.147 175.461 C 128.735 175.530,131.235 175.530,132.702 175.460 C 134.170 175.390,132.870 175.333,129.815 175.333 C 126.759 175.334,125.559 175.391,127.147 175.461 M222.685 178.033 C 223.042 178.126,223.625 178.126,223.981 178.033 C 224.338 177.940,224.046 177.864,223.333 177.864 C 222.620 177.864,222.329 177.940,222.685 178.033 M116.964 178.425 C 119.063 178.491,122.396 178.490,124.372 178.424 C 126.347 178.358,124.630 178.303,120.556 178.304 C 116.481 178.304,114.865 178.358,116.964 178.425 M177.164 180.926 C 177.165 182.556,177.230 183.176,177.309 182.305 C 177.387 181.434,177.386 180.101,177.306 179.342 C 177.227 178.584,177.163 179.296,177.164 180.926 M177.138 186.296 C 177.138 187.213,177.210 187.588,177.298 187.130 C 177.387 186.671,177.387 185.921,177.298 185.463 C 177.210 185.005,177.138 185.380,177.138 186.296 M177.130 192.407 C 177.135 193.222,177.210 193.512,177.299 193.051 C 177.388 192.591,177.384 191.924,177.292 191.570 C 177.199 191.216,177.126 191.593,177.130 192.407 M208.624 192.778 C 208.627 193.796,208.699 194.169,208.784 193.606 C 208.869 193.043,208.867 192.210,208.779 191.754 C 208.691 191.299,208.622 191.759,208.624 192.778 M177.187 201.667 C 177.187 204.926,177.244 206.210,177.313 204.519 C 177.382 202.829,177.381 200.163,177.312 198.594 C 177.243 197.024,177.186 198.407,177.187 201.667 M244.815 205.370 C 245.506 206.083,246.155 206.667,246.256 206.667 C 246.358 206.667,245.876 206.083,245.185 205.370 C 244.494 204.657,243.845 204.074,243.744 204.074 C 243.642 204.074,244.124 204.657,244.815 205.370 M208.612 205.741 C 208.616 206.556,208.692 206.845,208.780 206.385 C 208.869 205.924,208.866 205.257,208.773 204.903 C 208.680 204.549,208.608 204.926,208.612 205.741 M126.037 207.683 C 127.829 207.751,130.662 207.751,132.333 207.683 C 134.004 207.614,132.537 207.559,129.074 207.559 C 125.611 207.559,124.244 207.615,126.037 207.683 " stroke="none" fill="#60667c" fill-rule="evenodd"></path></g></svg>